<svg width="223" height="267" viewBox="0 0 223 267" fill="none" xmlns="http://www.w3.org/2000/svg">
<path d="M222.17 266.47L31.04 266.74C17.01 266.76 1.84999 250.85 1.17999 236.95L0.859985 31.54C2.54999 15.17 15.25 2.55001 31.7 1.18001L200.8 0.920011C209.29 0.490011 221.8 10.89 221.81 19.32L222.16 266.48L222.17 266.47ZM44.96 22.93H34.33C34.12 22.95 30.84 23.58 30.42 23.71C28.05 24.44 25.41 26.74 24.2 28.91C23.93 29.39 22.67 32.36 22.67 32.56L22.91 202.43C30.11 199.89 37.68 200.29 45.21 200.32L44.96 22.93ZM200.29 200.11L200.04 23.49L199.26 22.71L67.52 22.89L66.74 23.67L66.99 200.29L200.29 200.1V200.11ZM34.61 222.13C31.48 222.91 28.66 223.3 26.3 225.75C20.71 231.56 22.89 241.82 30.73 244.19C31.14 244.32 34.42 244.94 34.64 244.94L199.58 244.71L200.36 243.93L200.33 222.66L199.55 221.88L34.61 222.11V222.13Z" fill="#227C9D"/>
</svg>
