<?xml version="1.0" encoding="UTF-8"?>
<svg id="Ebene_1" xmlns="http://www.w3.org/2000/svg" version="1.1" viewBox="0 0 275 270">
  <!-- Generator: Adobe Illustrator 29.3.1, SVG Export Plug-In . SVG Version: 2.1.0 Build 151)  -->
  <defs>
    <style>
      .st0 {
        fill: #3e7a9a;
      }
    </style>
  </defs>
  <path class="st0" d="M252.8,43.4c-13.3-8-26.4-6.1-41.3-6.2.6-18.7-14.6-35.2-33-37.2H34.8C17.1,1.3,2.1,16.3.8,34.1c2,35.1-2.5,72.9,0,107.7,2.3,31.3,28.9,55,59.6,56.8,30.2,1.8,62.2-1.4,92.6,0,21.8-1.6,41.5-14,51.6-33.4,2.8-5.3,4.1-10.9,6.3-16.4,12.7-1,24.5,1.6,36.7-3.5,15.1-6.3,25.1-21.7,26.2-37.8,1.6-24,2-50.3-21-64h0ZM99.7,24.5h76.5c4.5,0,11.1,7.2,10.8,11.9-1.6,33.1,2.2,68.4,0,101.3-1.5,22.8-18,35.3-39.9,36.4-25,1.2-57.7,1.3-82.7,0-21.1-1.1-37.6-13.7-39.3-35.8-2.4-32.7,1.9-68.3,0-101.3-.5-4.9,6.1-12.5,10.8-12.5h63.7M248.2,110.9c-1.4,5-9,13.1-14.3,13.1h-22.4v-62.3h21.2c5.6,0,13.3,7,15.1,12.2,2.2,6.7,2.3,30.2.3,37h0Z"/>
  <path class="st0" d="M13.4,245h247.2c14.6,2.4,14.6,22.5,0,25H14.5c-14-2.4-14.8-21.4-1.1-25Z"/>
</svg>