<svg width="463" height="484" viewBox="0 0 463 484" fill="none" xmlns="http://www.w3.org/2000/svg">
<path d="M389.44 0.699997H73.35C32.8786 0.699997 0.0700073 33.5086 0.0700073 73.98V410.45C0.0700073 450.921 32.8786 483.73 73.35 483.73H389.44C429.911 483.73 462.72 450.921 462.72 410.45V73.98C462.72 33.5086 429.911 0.699997 389.44 0.699997Z" fill="#227C9D"/>
<path d="M193.41 320C191.11 297.84 168.31 274.31 160.72 252.31C137.13 183.92 214.73 124.94 273.97 166.03C307.2 189.08 314.32 229.4 296.54 264.83C289.66 278.55 269.31 305.54 269.31 320.01V332H193.4C193.11 328.15 193.79 323.8 193.4 320.01L193.41 320ZM271.11 180.13C236.53 151.23 183.27 168.07 171.68 211.38C163.1 243.45 180.26 261.44 194.49 286.96C200.29 297.36 204.81 307.76 206.44 319.71L256.27 319.69C257.25 316.24 257.55 312.64 258.48 309.16C265.7 282.23 290.85 261.33 293.23 232.55C294.85 213.02 286.03 192.61 271.11 180.13Z" fill="#FEF9EF"/>
<path d="M266.15 365.86C269.78 369.4 268.39 375.26 263.72 376.83C261.22 377.67 258.95 377.34 256.62 377.72C244.95 379.66 233.3 381.14 221.67 382.72C215.72 383.53 208.47 385.39 202.65 385.67C193.41 386.13 191.42 375.97 199.75 372.78L261.09 364.16C262.69 364.04 265 364.73 266.14 365.84L266.15 365.86Z" fill="#FEF9EF"/>
<path d="M266.15 352.54C264.93 353.73 262.2 354.32 260.52 354.65C241.66 355.69 221.26 361.79 202.66 362.71C193.33 363.17 191.52 353.01 199.76 349.82L261.63 341.27C267.43 341.56 270.59 348.21 266.15 352.54Z" fill="#FEF9EF"/>
<path d="M332.62 220.99C339.41 219.92 357.18 220.33 364.48 220.85C368.55 221.14 372.79 221.79 373.97 226.35C375.15 230.93 371.01 233.86 366.89 234.29C359.01 235.12 340.89 235.16 333.05 234.29C323.63 233.24 323.84 222.38 332.61 220.99H332.62Z" fill="#FEF9EF"/>
<path d="M96.92 221.02C104.07 220.3 123.35 219.92 130.11 220.99C138.95 222.39 139.19 233.4 129.22 234.34C120.91 235.13 105.15 235.03 96.75 234.37C92.52 234.04 87.79 231.85 88.73 226.85C89.58 222.3 92.94 221.42 96.92 221.02Z" fill="#FEF9EF"/>
<path d="M135.65 313.93C140.63 308.8 146.48 302.85 151.63 297.95C153.16 296.49 156.79 292.99 158.68 292.76C165.45 291.92 168.41 298.6 164.44 304.02C162.13 307.19 141.25 327.9 138.44 329.46C132.08 332.97 125.99 326.05 129.76 320.28C130.63 318.94 134.28 315.36 135.65 313.94V313.93Z" fill="#FEF9EF"/>
<path d="M303.46 146.13C308.41 141.03 314.32 134.99 319.44 130.15C322.59 127.17 327.25 122.4 331.71 126.27C335.52 129.57 334.43 133.23 331.74 136.71C329.05 140.19 309.81 159.66 306.63 161.55C300.49 165.2 293.74 158.96 297.36 152.78C298.1 151.52 302.13 147.51 303.45 146.14L303.46 146.13Z" fill="#FEF9EF"/>
<path d="M311.1 297.95C318.69 305.18 325.62 313.28 333.18 320.57C336.5 328.14 329.32 333.45 322.53 328.22C318.82 325.36 299.51 306.11 297.59 302.72C295.93 299.78 295.82 297.17 298.28 294.51C302.72 289.73 307.81 294.81 311.1 297.94V297.95Z" fill="#FEF9EF"/>
<path d="M143.29 130.15C150.9 137.34 157.8 145.5 165.36 152.78C167.52 155.56 166.28 159.9 163.41 161.65C159.99 163.73 157.62 162.67 154.72 160.43C150.98 157.54 131.71 138.34 129.78 134.93C128.11 131.98 127.85 130.62 129.99 127.74C134.5 121.66 139.42 126.5 143.3 130.16L143.29 130.15Z" fill="#FEF9EF"/>
<path d="M226.54 87.2C230.44 83.2 237.02 85.2 237.82 90.82C236.95 102.31 239.17 115.95 237.81 127.17C236.88 134.83 225.94 135.38 224.95 126.66C224.07 118.92 224.01 98.97 224.89 91.27C225.04 89.96 225.64 88.14 226.56 87.19L226.54 87.2Z" fill="#FEF9EF"/>
<path d="M212.38 394.66H247.59L248.12 395.68C246.42 399.9 244.48 404.12 240.19 406.24C235.39 408.61 225.24 408.58 220.42 406.35C216.33 404.46 212.83 399.07 212.38 394.66Z" fill="#FEF9EF"/>
<path d="M225.75 176.05C228.91 175.73 233.45 175.31 235.88 177.65C239.36 181 237.9 187.81 233 188.8C229.73 189.46 225.42 189.13 221.75 190.04C207.85 193.5 196.01 206.15 193.53 220.25C192.83 224.24 193.87 230.33 190.07 232.78C185.45 235.75 180.54 232.8 179.97 227.56C179.3 221.38 181.99 211.49 184.55 205.79C191.67 189.97 208.41 177.83 225.73 176.06L225.75 176.05Z" fill="#FEF9EF"/>
</svg>
