<svg width="258" height="257" viewBox="0 0 258 257" fill="none" xmlns="http://www.w3.org/2000/svg">
<path d="M225.66 158.62L218.72 175.73C224.21 185.27 236.21 194.13 230.73 206.39C228.56 211.25 210.88 228.74 205.95 230.56C193.83 235.04 185.66 223.02 176.06 218.15C170.66 220.92 165.06 223.36 159.21 225.03C156.23 236.72 158.07 254.77 141.86 256.37C135.89 256.96 121.34 257.03 115.52 256.25C100.2 254.18 101.85 236.32 99.0401 225.03L82.4 218.44C69.94 225.76 61.2501 239.29 46.4601 226.91C41.7501 222.97 27.9401 209.48 26.9401 203.98C24.6701 191.53 35.1501 185.83 39.6301 175.86L32.59 159.13C20.88 156.27 2.85006 157.97 1.24006 141.78C0.650057 135.82 0.580052 121.27 1.36005 115.45C2.54005 106.7 8.96006 103.49 16.7101 101.83C21.0001 100.91 27.5501 100.73 31.3501 99.48C33.0001 98.94 34.18 93 34.9701 91.11C36.2701 87.99 37.94 84.99 39.2 81.85C33.8 72.29 21.3401 63.04 27.1301 50.81C28.8901 47.09 45.31 30.53 49.03 28.26C54.54 24.9 60.7001 25.3 66.1401 28.47C68.7401 29.98 80.2 39.33 81.8 39.1C83.53 38.85 88.6101 35.82 90.6701 34.93C93.2101 33.83 96.0401 33.28 98.5401 32.06C101.6 20.37 99.6301 2.34001 115.9 0.720006C121.87 0.130006 136.42 0.0600016 142.24 0.840002C157.92 2.96 155.09 19.65 158.23 30.3C158.99 32.88 164.09 33.39 166.59 34.43C169.91 35.81 173.11 37.45 176.34 38.99C186.08 33.72 195.05 21.09 207.4 27.09C211.25 28.96 228.28 45.81 230.32 49.62C236.82 61.78 225.41 70.92 219.43 80.24L219.14 82.23L226.34 98.55C237.41 101.25 255.37 100.03 257.03 115.31C257.69 121.4 257.58 134.59 257.04 140.8C255.59 157.68 237.78 155.41 225.67 158.63L225.66 158.62ZM43.04 147.19C45.43 149.34 47.47 158.37 48.96 161.99C50.35 165.35 55.6801 174.01 55.7001 176.72C55.7001 177.82 55.1 179.61 54.62 180.64C51.92 186.3 44.89 192.92 41.68 198.66L41.2 200.67L57.9701 217.44L59.5701 217.05C65.3501 213.53 70.9901 208.08 76.7301 204.74C78.3001 203.83 79.5301 203.01 81.4201 202.91C85.2601 202.7 91.72 207.03 95.68 208.67C99.64 210.31 109.62 212.52 111.65 215.67C112.45 216.91 112.67 218.41 113 219.82C114.47 226.09 114.55 234.05 116.28 240.02C116.46 240.63 116.61 241.23 117.14 241.65L140.37 241.89C140.79 241.87 141.09 241.69 141.38 241.4C142.64 240.15 144.5 221.56 145.75 217.81C147.73 211.85 156.14 211.33 161.59 209.17C165.77 207.52 174.06 202.07 177.83 202.41C179.85 202.59 181.75 204.24 183.44 205.32C188.82 208.78 193.81 213.02 199.08 216.65L201.84 216.44C203.8 213.58 217.26 202.24 217.57 200.16C217.66 199.56 217.6 198.99 217.29 198.46C214.75 193.71 203.46 181.82 203.05 177.22C202.7 173.29 208.13 165.23 209.81 160.98C211.38 157.02 212.93 148.18 216.31 146C217.55 145.2 219.05 144.98 220.46 144.65C226.73 143.18 234.7 143.1 240.66 141.38C241.28 141.2 241.87 141.05 242.29 140.52L242.53 117.29C242.51 116.87 242.33 116.57 242.04 116.28C240.79 115.02 222.19 113.16 218.44 111.91C216.58 111.29 214.91 110.16 213.95 108.41C211.99 104.81 210.62 97.71 208.64 93.24C206.39 88.14 201.01 82.39 204.15 76.94L217.28 58.6L217.56 56.9C215.69 54.62 202.27 40.28 200.79 40.13C200.23 40.07 199.69 40.26 199.2 40.53L180.2 54C174.72 56.19 167.05 50.05 161.59 47.9C157.98 46.48 148.59 44.53 146.61 41.9C143.22 37.39 143.32 22.43 141.5 16.55L140.62 15.43L116.61 15.4C113.97 22.64 114.47 32.68 112.01 39.77C110.11 45.24 100.81 46.27 95.6601 48.4C92.1901 49.84 83.8901 55.04 80.9201 55.04C75.3901 55.04 59.71 39.82 57.15 40.38L40.4601 56.65L40.2 57.85C42.64 63.59 54.76 75.39 55.08 80.98C55.26 84.18 50.4001 91.62 48.9701 95.1C47.2201 99.33 45.3601 109.36 41.9701 111.58C40.98 112.23 39.4901 112.64 38.3301 112.93C35.2501 113.71 16.7601 115.85 15.9701 117.05V141.04L17.2201 141.8C24.4301 143.43 32.7701 143.71 39.8201 145.67C40.9701 145.99 42.14 146.39 43.04 147.2V147.19Z" fill="#227C9D"/>
<path d="M128.97 73.3C173.45 72.97 200.06 124.05 174.2 160.36C153.18 189.88 109.92 191.61 86.6901 163.73C56.8401 127.92 82.6901 73.64 128.97 73.3ZM128.04 87.72C96.2001 88.53 77.6601 124.68 95.2601 151.16C111.54 175.67 148.34 174.98 163.81 149.97C180.8 122.49 160.24 86.9 128.04 87.72Z" fill="#227C9D"/>
</svg>
